<svg width="21" height="21" viewBox="0 0 21 21" fill="none" xmlns="http://www.w3.org/2000/svg">
<path d="M20.8197 0.180261C20.6457 0.00615114 20.3845 -0.0474149 20.1562 0.0440904L0.386755 7.95177C0.160514 8.04221 0.00904464 8.25766 0.0003904 8.50113C-0.00826384 8.7446 0.127579 8.97027 0.346724 9.07654L8.14239 12.8574L11.9233 20.6531C12.0264 20.8657 12.2417 20.9999 12.4767 20.9999C12.484 20.9999 12.4913 20.9997 12.4987 20.9995C12.7421 20.9908 12.9576 20.8393 13.048 20.6131L20.9559 0.843808C21.0473 0.615311 20.9937 0.35429 20.8197 0.180261Z" fill="#4DBBEB"/>
<path d="M20.8198 0.180328L8.14258 12.8574L11.9235 20.6532C12.0266 20.8658 12.2419 20.9999 12.4769 20.9999C12.4842 20.9999 12.4915 20.9998 12.4989 20.9995C12.7423 20.9908 12.9577 20.8394 13.0482 20.6132L20.956 0.843875C21.0474 0.615378 20.9938 0.354357 20.8198 0.180328Z" fill="#2488FF"/>
</svg>
