<svg width="81" height="68" viewBox="0 0 81 68" fill="none" xmlns="http://www.w3.org/2000/svg">
<path d="M48.1232 60.5308C48.1232 60.1462 48.1966 59.7853 48.3436 59.4483C48.4905 59.1112 48.6893 58.8173 48.94 58.5666C49.1949 58.3117 49.491 58.1107 49.828 57.9638C50.1651 57.8168 50.526 57.7434 50.9106 57.7434H55.176V59.6038H50.9106C50.781 59.6038 50.66 59.6276 50.5476 59.6751C50.4352 59.7227 50.3358 59.7897 50.2494 59.8761C50.1673 59.9582 50.1025 60.0554 50.0549 60.1678C50.0074 60.2802 49.9836 60.4012 49.9836 60.5308C49.9836 60.6605 50.0074 60.7836 50.0549 60.9003C50.1025 61.0127 50.1673 61.1121 50.2494 61.1985C50.3358 61.2806 50.4352 61.3454 50.5476 61.393C50.66 61.4405 50.781 61.4643 50.9106 61.4643H52.7711C53.1557 61.4643 53.5165 61.5377 53.8536 61.6847C54.195 61.8273 54.4911 62.0261 54.7417 62.2811C54.9967 62.5317 55.1955 62.8277 55.3381 63.1692C55.485 63.5062 55.5585 63.8671 55.5585 64.2517C55.5585 64.6363 55.485 64.9972 55.3381 65.3343C55.1955 65.6714 54.9967 65.9674 54.7417 66.2224C54.4911 66.473 54.195 66.6718 53.8536 66.8188C53.5165 66.9657 53.1557 67.0392 52.7711 67.0392H48.6418V65.1787H52.7711C52.9007 65.1787 53.0217 65.1549 53.1341 65.1074C53.2464 65.0599 53.3437 64.995 53.4258 64.9129C53.5122 64.8265 53.5792 64.7271 53.6267 64.6147C53.6743 64.5024 53.698 64.3814 53.698 64.2517C53.698 64.1221 53.6743 64.0011 53.6267 63.8887C53.5792 63.7763 53.5122 63.6791 53.4258 63.597C53.3437 63.5106 53.2464 63.4436 53.1341 63.396C53.0217 63.3485 52.9007 63.3247 52.7711 63.3247H50.9106C50.526 63.3247 50.1651 63.2513 49.828 63.1043C49.491 62.9574 49.1949 62.7586 48.94 62.5079C48.6893 62.253 48.4905 61.9569 48.3436 61.6199C48.1966 61.2785 48.1232 60.9154 48.1232 60.5308Z" fill="#203B51"/>
<path d="M46.9369 67.0392H45.0764V57.7434H46.9369V67.0392Z" fill="#203B51"/>
<path d="M43.4104 67.0391H41.5564V60.4011C41.5564 60.2715 41.5305 60.1505 41.4786 60.0381C41.4311 59.9257 41.3641 59.8285 41.2777 59.7464C41.1956 59.66 41.0983 59.593 40.986 59.5454C40.8736 59.4979 40.7526 59.4741 40.623 59.4741C40.4933 59.4741 40.3723 59.4979 40.2599 59.5454C40.1476 59.593 40.0482 59.66 39.9617 59.7464C39.8796 59.8285 39.8148 59.9257 39.7673 60.0381C39.7197 60.1505 39.696 60.2715 39.696 60.4011V67.0391H37.8355V60.4011C37.8355 60.2715 37.8117 60.1505 37.7642 60.0381C37.7167 59.9257 37.6497 59.8285 37.5633 59.7464C37.4811 59.66 37.3839 59.593 37.2715 59.5454C37.1592 59.4979 37.0382 59.4741 36.9085 59.4741C36.7789 59.4741 36.6579 59.4979 36.5455 59.5454C36.4332 59.593 36.3338 59.66 36.2473 59.7464C36.1652 59.8285 36.1004 59.9257 36.0529 60.0381C36.0053 60.1505 35.9815 60.2715 35.9815 60.4011V67.0391H34.1211V60.4011C34.1211 60.0165 34.1924 59.6556 34.335 59.3186C34.4819 58.9771 34.6807 58.6811 34.9314 58.4305C35.1864 58.1755 35.4824 57.9767 35.8195 57.8341C36.1609 57.6871 36.5239 57.6137 36.9085 57.6137C37.2543 57.6137 37.587 57.6763 37.9068 57.8017C38.2266 57.9227 38.514 58.0999 38.769 58.3332C39.024 58.0999 39.3092 57.9227 39.6247 57.8017C39.9445 57.6763 40.2772 57.6137 40.623 57.6137C41.0076 57.6137 41.3684 57.6871 41.7055 57.8341C42.0469 57.9767 42.343 58.1755 42.5936 58.4305C42.8486 58.6811 43.0474 58.9771 43.19 59.3186C43.3369 59.6556 43.4104 60.0165 43.4104 60.4011V67.0391Z" fill="#203B51"/>
<path d="M28.2178 67.0391H26.4351V57.3349H28.2178V67.0391Z" fill="#203B51"/>
<path d="M32.6431 67.0391H30.8605V57.335H32.6431V67.0391Z" fill="#203B51"/>
<path d="M31.9668 61.5074L31.9668 63.7201L26.4351 63.7201L26.4351 61.5074L31.9668 61.5074Z" fill="#203B51"/>
<g filter="url(#filter0_d_1_5)">
<path d="M30.834 2H50.1673C63.5142 2 74.334 12.7979 74.334 26.1178V28.8311C74.334 36.2534 70.9744 42.8926 65.6899 47.3167L72.2195 57.0188L56.6545 52.0701C54.5902 52.6428 52.4146 52.9489 50.1673 52.9489H30.834C17.487 52.9489 6.66723 42.151 6.66723 28.8311V26.1178C6.66723 12.7979 17.487 2 30.834 2Z" fill="#00ADEE"/>
</g>
<path d="M38.6817 14.4916V10.3316C38.6817 9.17717 39.6177 8.23077 40.7617 8.23077C41.3337 8.23077 41.8537 8.45957 42.2281 8.84437C42.6129 9.22917 42.8417 9.74917 42.8417 10.3316V14.4916H38.6817Z" fill="#ADBFC4"/>
<path d="M47.0017 17.6116V19.6916H34.5217V17.6116C34.5217 15.3132 37.3193 13.4516 40.7617 13.4516C44.2041 13.4516 47.0017 15.3132 47.0017 17.6116Z" fill="#BDCCD1"/>
<path d="M23.4353 37.3715H22.0417C19.7433 37.3715 17.8817 35.5099 17.8817 33.2115V26.9715C17.8817 24.6731 19.7433 22.8115 22.0417 22.8115H23.4353V37.3715Z" fill="#BDCCD1"/>
<path d="M58.0881 22.8115H59.4817C61.7801 22.8115 63.6417 24.6731 63.6417 26.9715V33.2115C63.6417 35.5099 61.7801 37.3715 59.4817 37.3715H58.0881V22.8115Z" fill="#BDCCD1"/>
<path d="M49.0816 17.6115H32.4416C26.6979 17.6115 22.0416 22.2677 22.0416 28.0115V32.1715C22.0416 37.9153 26.6979 42.5715 32.4416 42.5715H49.0816C54.8254 42.5715 59.4816 37.9153 59.4816 32.1715V28.0115C59.4816 22.2677 54.8254 17.6115 49.0816 17.6115Z" fill="#D8E1E5"/>
<path d="M48.0416 22.8115H33.4817C29.461 22.8115 26.2017 26.0709 26.2017 30.0915C26.2017 34.1121 29.461 37.3715 33.4817 37.3715H48.0416C52.0623 37.3715 55.3216 34.1121 55.3216 30.0915C55.3216 26.0709 52.0623 22.8115 48.0416 22.8115Z" fill="#203B51"/>
<path d="M32.4418 32.1716C33.5905 32.1716 34.5218 31.2403 34.5218 30.0916C34.5218 28.9428 33.5905 28.0116 32.4418 28.0116C31.293 28.0116 30.3618 28.9428 30.3618 30.0916C30.3618 31.2403 31.293 32.1716 32.4418 32.1716Z" fill="#00ADEE"/>
<path d="M49.0816 32.1716C50.2304 32.1716 51.1616 31.2403 51.1616 30.0916C51.1616 28.9428 50.2304 28.0116 49.0816 28.0116C47.9329 28.0116 47.0016 28.9428 47.0016 30.0916C47.0016 31.2403 47.9329 32.1716 49.0816 32.1716Z" fill="#00ADEE"/>
<path d="M40.7617 34.2515C39.2277 34.2515 38.1887 33.3072 37.8164 32.7488C37.4971 32.2714 37.6261 31.6256 38.1045 31.3063C38.5756 30.9912 39.2152 31.1128 39.5387 31.5819C39.5699 31.6255 39.9879 32.1716 40.7617 32.1716C41.5563 32.1716 41.9723 31.5996 41.9764 31.5944C42.2936 31.117 42.9415 30.987 43.4189 31.3063C43.8973 31.6256 44.0263 32.2714 43.707 32.7488C43.3347 33.3072 42.2957 34.2515 40.7617 34.2515Z" fill="#00ADEE"/>
<defs>
<filter id="filter0_d_1_5" x="0.667236" y="0" width="79.6668" height="67.0188" filterUnits="userSpaceOnUse" color-interpolation-filters="sRGB">
<feFlood flood-opacity="0" result="BackgroundImageFix"/>
<feColorMatrix in="SourceAlpha" type="matrix" values="0 0 0 0 0 0 0 0 0 0 0 0 0 0 0 0 0 0 127 0" result="hardAlpha"/>
<feOffset dy="4"/>
<feGaussianBlur stdDeviation="3"/>
<feComposite in2="hardAlpha" operator="out"/>
<feColorMatrix type="matrix" values="0 0 0 0 0 0 0 0 0 0 0 0 0 0 0 0 0 0 0.15 0"/>
<feBlend mode="normal" in2="BackgroundImageFix" result="effect1_dropShadow_1_5"/>
<feBlend mode="normal" in="SourceGraphic" in2="effect1_dropShadow_1_5" result="shape"/>
</filter>
</defs>
</svg>
